<svg width="161" height="48" fill="none" xmlns="http://www.w3.org/2000/svg"><g id="logo"><g id="Logo vector"><g id="Vector"><path d="M7.68 20.16c0-8.09 0-12.135 1.941-15.04A11.521 11.521 0 0 1 12.8 1.94C15.705 0 19.75 0 27.84 0s12.135 0 15.04 1.941c1.258.841 2.338 1.921 3.178 3.179C48 8.025 48 12.07 48 20.16s0 12.135-1.941 15.04a11.522 11.522 0 0 1-3.179 3.178c-2.905 1.942-6.95 1.942-15.04 1.942s-12.135 0-15.04-1.941A11.522 11.522 0 0 1 9.62 35.2C7.68 32.295 7.68 28.25 7.68 20.16Z" fill="#553B33"/><path d="M0 23.04C0 15.8 0 12.179 2.25 9.93c2.249-2.25 5.87-2.25 13.11-2.25h9.6c7.24 0 10.861 0 13.11 2.25 2.25 2.249 2.25 5.87 2.25 13.11v9.6c0 7.24 0 10.861-2.25 13.11C35.822 48 32.2 48 24.96 48h-9.6c-7.24 0-10.861 0-13.11-2.25C0 43.502 0 39.88 0 32.64v-9.6Z" fill="#2F241F"/></g></g><g id="Dekoor" fill="#2F241F"><path d="M69.382 35.04h-7.92V12.698h7.985c2.248 0 4.182.447 5.804 1.342 1.622.887 2.87 2.164 3.742 3.829.88 1.666 1.32 3.658 1.32 5.978 0 2.327-.44 4.327-1.32 6-.873 1.673-2.127 2.957-3.764 3.851-1.629.895-3.578 1.342-5.847 1.342Zm-3.196-4.047h3c1.396 0 2.57-.248 3.523-.742.96-.502 1.68-1.277 2.16-2.324.487-1.054.731-2.414.731-4.08 0-1.65-.243-3-.73-4.047-.48-1.047-1.197-1.818-2.15-2.313-.953-.494-2.127-.742-3.523-.742h-3.011v14.248ZM90.132 35.367c-1.723 0-3.207-.349-4.45-1.047a7.172 7.172 0 0 1-2.859-2.99c-.669-1.294-1.003-2.825-1.003-4.592 0-1.723.334-3.236 1.003-4.538.67-1.302 1.611-2.316 2.826-3.044 1.221-.727 2.654-1.09 4.298-1.09 1.105 0 2.134.178 3.087.534.96.349 1.796.876 2.51 1.582.72.705 1.28 1.593 1.68 2.662.4 1.061.6 2.305.6 3.73v1.277h-14.15v-2.88h9.775c0-.67-.146-1.262-.437-1.778a3.125 3.125 0 0 0-1.21-1.211c-.51-.298-1.103-.447-1.779-.447-.705 0-1.33.163-1.876.49-.538.32-.96.753-1.266 1.299a3.666 3.666 0 0 0-.469 1.8v2.738c0 .829.153 1.545.458 2.149.313.604.753 1.069 1.32 1.396.568.328 1.24.491 2.019.491.516 0 .989-.073 1.418-.218a2.944 2.944 0 0 0 1.102-.655c.305-.29.538-.647.698-1.069l4.298.284a5.868 5.868 0 0 1-1.342 2.705c-.669.764-1.534 1.36-2.596 1.79-1.055.421-2.273.632-3.655.632ZM103.838 30.218l.011-5.574h.676l5.367-6.36h5.335l-7.211 8.421h-1.102l-3.076 3.513Zm-4.211 4.822V12.698h4.647V35.04h-4.647Zm10.473 0-4.931-7.298 3.098-3.284 7.276 10.582H110.1ZM123.159 35.367c-1.694 0-3.16-.36-4.396-1.08a7.39 7.39 0 0 1-2.847-3.032c-.67-1.302-1.004-2.811-1.004-4.528 0-1.73.334-3.243 1.004-4.538.669-1.302 1.618-2.313 2.847-3.033 1.236-.727 2.702-1.09 4.396-1.09 1.695 0 3.157.363 4.386 1.09 1.236.72 2.189 1.731 2.858 3.033.669 1.295 1.003 2.807 1.003 4.538 0 1.717-.334 3.226-1.003 4.527a7.37 7.37 0 0 1-2.858 3.033c-1.229.72-2.691 1.08-4.386 1.08Zm.022-3.6c.771 0 1.415-.218 1.931-.654.516-.444.905-1.048 1.167-1.811.269-.764.404-1.633.404-2.607 0-.975-.135-1.844-.404-2.608-.262-.763-.651-1.367-1.167-1.81-.516-.444-1.16-.666-1.931-.666-.778 0-1.433.222-1.964.665-.523.444-.92 1.048-1.189 1.811-.262.764-.392 1.633-.392 2.608 0 .974.13 1.843.392 2.607.269.763.666 1.367 1.189 1.81.531.437 1.186.655 1.964.655ZM140.77 35.367c-1.694 0-3.16-.36-4.396-1.08a7.39 7.39 0 0 1-2.847-3.032c-.669-1.302-1.004-2.811-1.004-4.528 0-1.73.335-3.243 1.004-4.538.669-1.302 1.618-2.313 2.847-3.033 1.236-.727 2.702-1.09 4.396-1.09 1.695 0 3.157.363 4.386 1.09 1.236.72 2.189 1.731 2.858 3.033.669 1.295 1.004 2.807 1.004 4.538 0 1.717-.335 3.226-1.004 4.527a7.37 7.37 0 0 1-2.858 3.033c-1.229.72-2.691 1.08-4.386 1.08Zm.022-3.6c.771 0 1.415-.218 1.931-.654.516-.444.906-1.048 1.167-1.811.269-.764.404-1.633.404-2.607 0-.975-.135-1.844-.404-2.608-.261-.763-.651-1.367-1.167-1.81-.516-.444-1.16-.666-1.931-.666-.778 0-1.433.222-1.963.665-.524.444-.92 1.048-1.19 1.811-.261.764-.392 1.633-.392 2.608 0 .974.131 1.843.392 2.607.27.763.666 1.367 1.19 1.81.53.437 1.185.655 1.963.655ZM150.811 35.04V18.284h4.505v2.923h.175c.305-1.04.818-1.825 1.538-2.356.72-.538 1.549-.807 2.487-.807.233 0 .484.014.753.043.269.03.505.07.709.12v4.124a6.069 6.069 0 0 0-.906-.175 8.128 8.128 0 0 0-1.058-.076c-.683 0-1.294.149-1.832.447-.531.291-.953.698-1.266 1.222-.305.524-.458 1.127-.458 1.81v9.48h-4.647Z"/></g></g></svg>